<mxfile host="app.diagrams.net" modified="2023-04-16T08:16:19.726Z" agent="Mozilla/5.0 (Windows NT 10.0; Win64; x64) AppleWebKit/537.36 (KHTML, like Gecko) Chrome/112.0.0.0 Safari/537.36" etag="iWrRVedR9QDhfjDfh299" version="21.1.8" type="device">
  <diagram name="Page-1" id="FHFR0YHwBitnI3qR67gB">
    <mxGraphModel dx="880" dy="448" grid="0" gridSize="10" guides="1" tooltips="1" connect="1" arrows="1" fold="1" page="1" pageScale="1" pageWidth="850" pageHeight="1100" math="0" shadow="0">
      <root>
        <mxCell id="0" />
        <mxCell id="1" parent="0" />
        <mxCell id="NmYBUlSzhG3UtngxxQgY-7" style="edgeStyle=orthogonalEdgeStyle;rounded=0;orthogonalLoop=1;jettySize=auto;html=1;" edge="1" parent="1" source="NmYBUlSzhG3UtngxxQgY-1" target="NmYBUlSzhG3UtngxxQgY-4">
          <mxGeometry relative="1" as="geometry" />
        </mxCell>
        <mxCell id="NmYBUlSzhG3UtngxxQgY-1" value="" style="sketch=0;points=[[0,0,0],[0.25,0,0],[0.5,0,0],[0.75,0,0],[1,0,0],[0,1,0],[0.25,1,0],[0.5,1,0],[0.75,1,0],[1,1,0],[0,0.25,0],[0,0.5,0],[0,0.75,0],[1,0.25,0],[1,0.5,0],[1,0.75,0]];outlineConnect=0;fontColor=#232F3E;gradientColor=#945DF2;gradientDirection=north;fillColor=#5A30B5;strokeColor=#ffffff;dashed=0;verticalLabelPosition=bottom;verticalAlign=top;align=center;html=1;fontSize=12;fontStyle=0;aspect=fixed;shape=mxgraph.aws4.resourceIcon;resIcon=mxgraph.aws4.managed_streaming_for_kafka;" vertex="1" parent="1">
          <mxGeometry x="310" y="140" width="78" height="78" as="geometry" />
        </mxCell>
        <mxCell id="NmYBUlSzhG3UtngxxQgY-3" style="edgeStyle=orthogonalEdgeStyle;rounded=0;orthogonalLoop=1;jettySize=auto;html=1;" edge="1" parent="1" source="NmYBUlSzhG3UtngxxQgY-2" target="NmYBUlSzhG3UtngxxQgY-1">
          <mxGeometry relative="1" as="geometry" />
        </mxCell>
        <mxCell id="NmYBUlSzhG3UtngxxQgY-2" value="" style="sketch=0;outlineConnect=0;fontColor=#232F3E;gradientColor=none;fillColor=#4D27AA;strokeColor=none;dashed=0;verticalLabelPosition=bottom;verticalAlign=top;align=center;html=1;fontSize=12;fontStyle=0;aspect=fixed;pointerEvents=1;shape=mxgraph.aws4.redshift_streaming_ingestion;" vertex="1" parent="1">
          <mxGeometry x="120" y="218" width="71" height="78" as="geometry" />
        </mxCell>
        <mxCell id="NmYBUlSzhG3UtngxxQgY-10" style="edgeStyle=orthogonalEdgeStyle;rounded=0;orthogonalLoop=1;jettySize=auto;html=1;entryX=0;entryY=0.5;entryDx=0;entryDy=0;" edge="1" parent="1" source="NmYBUlSzhG3UtngxxQgY-4" target="NmYBUlSzhG3UtngxxQgY-9">
          <mxGeometry relative="1" as="geometry" />
        </mxCell>
        <mxCell id="NmYBUlSzhG3UtngxxQgY-4" value="" style="verticalLabelPosition=bottom;sketch=0;aspect=fixed;html=1;verticalAlign=top;strokeColor=none;align=center;outlineConnect=0;shape=mxgraph.citrix.process;" vertex="1" parent="1">
          <mxGeometry x="530" y="148" width="52" height="62" as="geometry" />
        </mxCell>
        <mxCell id="NmYBUlSzhG3UtngxxQgY-5" value="Kafka" style="text;strokeColor=none;align=center;fillColor=none;html=1;verticalAlign=middle;whiteSpace=wrap;rounded=0;" vertex="1" parent="1">
          <mxGeometry x="319" y="230" width="60" height="30" as="geometry" />
        </mxCell>
        <mxCell id="NmYBUlSzhG3UtngxxQgY-6" value="Producer" style="text;strokeColor=none;align=center;fillColor=none;html=1;verticalAlign=middle;whiteSpace=wrap;rounded=0;" vertex="1" parent="1">
          <mxGeometry x="120" y="310" width="60" height="30" as="geometry" />
        </mxCell>
        <mxCell id="NmYBUlSzhG3UtngxxQgY-8" value="Consumer" style="text;strokeColor=none;align=center;fillColor=none;html=1;verticalAlign=middle;whiteSpace=wrap;rounded=0;" vertex="1" parent="1">
          <mxGeometry x="522" y="230" width="60" height="30" as="geometry" />
        </mxCell>
        <mxCell id="NmYBUlSzhG3UtngxxQgY-13" style="edgeStyle=orthogonalEdgeStyle;rounded=0;orthogonalLoop=1;jettySize=auto;html=1;entryX=0.5;entryY=0;entryDx=0;entryDy=0;" edge="1" parent="1" source="NmYBUlSzhG3UtngxxQgY-9" target="NmYBUlSzhG3UtngxxQgY-12">
          <mxGeometry relative="1" as="geometry" />
        </mxCell>
        <mxCell id="NmYBUlSzhG3UtngxxQgY-9" value="" style="image;aspect=fixed;perimeter=ellipsePerimeter;html=1;align=center;shadow=0;dashed=0;spacingTop=3;image=img/lib/active_directory/database.svg;" vertex="1" parent="1">
          <mxGeometry x="670" y="148" width="97.3" height="72" as="geometry" />
        </mxCell>
        <mxCell id="NmYBUlSzhG3UtngxxQgY-11" value="ClickHouse (DB)" style="text;strokeColor=none;align=center;fillColor=none;html=1;verticalAlign=middle;whiteSpace=wrap;rounded=0;" vertex="1" parent="1">
          <mxGeometry x="680" y="110" width="60" height="30" as="geometry" />
        </mxCell>
        <mxCell id="NmYBUlSzhG3UtngxxQgY-12" value="" style="shape=image;html=1;verticalAlign=top;verticalLabelPosition=bottom;labelBackgroundColor=#ffffff;imageAspect=0;aspect=fixed;image=https://cdn3.iconfinder.com/data/icons/fintech-icon/128/11_Data_Visualization-128.png" vertex="1" parent="1">
          <mxGeometry x="660" y="310" width="128" height="128" as="geometry" />
        </mxCell>
        <mxCell id="NmYBUlSzhG3UtngxxQgY-14" value="SuperSet" style="text;strokeColor=none;align=center;fillColor=none;html=1;verticalAlign=middle;whiteSpace=wrap;rounded=0;" vertex="1" parent="1">
          <mxGeometry x="600" y="359" width="60" height="30" as="geometry" />
        </mxCell>
        <mxCell id="NmYBUlSzhG3UtngxxQgY-16" value="" style="endArrow=none;html=1;rounded=0;" edge="1" parent="1">
          <mxGeometry width="50" height="50" relative="1" as="geometry">
            <mxPoint x="480" y="280" as="sourcePoint" />
            <mxPoint x="480" y="80" as="targetPoint" />
          </mxGeometry>
        </mxCell>
        <mxCell id="NmYBUlSzhG3UtngxxQgY-17" value="" style="endArrow=none;html=1;rounded=0;" edge="1" parent="1">
          <mxGeometry width="50" height="50" relative="1" as="geometry">
            <mxPoint x="480" y="280" as="sourcePoint" />
            <mxPoint x="600" y="280" as="targetPoint" />
          </mxGeometry>
        </mxCell>
        <mxCell id="NmYBUlSzhG3UtngxxQgY-18" value="" style="endArrow=none;html=1;rounded=0;" edge="1" parent="1">
          <mxGeometry width="50" height="50" relative="1" as="geometry">
            <mxPoint x="480" y="80" as="sourcePoint" />
            <mxPoint x="600" y="80" as="targetPoint" />
          </mxGeometry>
        </mxCell>
        <mxCell id="NmYBUlSzhG3UtngxxQgY-19" value="" style="endArrow=none;html=1;rounded=0;" edge="1" parent="1">
          <mxGeometry width="50" height="50" relative="1" as="geometry">
            <mxPoint x="600" y="280" as="sourcePoint" />
            <mxPoint x="600" y="80" as="targetPoint" />
          </mxGeometry>
        </mxCell>
        <mxCell id="NmYBUlSzhG3UtngxxQgY-20" value="Tranformation Layer" style="text;strokeColor=none;align=center;fillColor=none;html=1;verticalAlign=middle;whiteSpace=wrap;rounded=0;" vertex="1" parent="1">
          <mxGeometry x="510" y="100" width="60" height="30" as="geometry" />
        </mxCell>
      </root>
    </mxGraphModel>
  </diagram>
</mxfile>
